<?xml version="1.0" encoding="iso-8859-1"?>
<!-- Generator: Adobe Illustrator 16.0.0, SVG Export Plug-In . SVG Version: 6.00 Build 0)  -->
<!DOCTYPE svg PUBLIC "-//W3C//DTD SVG 1.1//EN" "http://www.w3.org/Graphics/SVG/1.1/DTD/svg11.dtd">
<svg version="1.1" id="Capa_1" xmlns="http://www.w3.org/2000/svg" xmlns:xlink="http://www.w3.org/1999/xlink" x="0px" y="0px"
	 width="40px" height="40px" viewBox="0 0 587.275 587.275" style="enable-background:new 0 0 587.275 587.275;"
	 xml:space="preserve">
<g>
	<g>
		<path d="M582.584,354.645c-17.01-9.299-30.377-22.632-40.74-38.581c-11.562-17.801-23.889-34.887-40.84-47.707
			c-1.18-0.893-2.461-1.644-3.811-2.301c-1.049-0.93-2.098-1.865-3.146-2.795c-0.689-0.612-1.529-0.4-2.027,0.114
			c-0.074-0.078-0.154-0.147-0.254-0.216c-2.525-1.742-5.047-3.484-7.572-5.227c-0.971-0.669-1.896,0.106-2.043,1.02
			c-1.266-1.069-2.529-2.142-3.795-3.211c-0.674-0.571-1.494-0.388-2,0.082c-1.26-1.256-2.521-2.517-3.781-3.774
			c-1.297-1.297-3.309,0.714-2.012,2.012c0.393,0.392,0.779,0.779,1.172,1.171c-0.693-0.481-1.396-0.951-2.105-1.396
			c-3.09-1.93-5.488-6.063-9.531-5.116c-1.217-1.089-2.432-2.183-3.648-3.272c-1.357-1.22-3.377,0.784-2.01,2.012
			c0.941,0.849,1.889,1.693,2.834,2.542c-0.398,0-1.178-0.555-1.746-0.779c-4.801-1.918-9.412-2.966-14.936-3.097
			c-3.17-0.077-6.324-1.134-9.467-2.525c-2.252-2.448-4.504-4.892-6.752-7.34c-1.244-1.351-3.248,0.665-2.012,2.012
			c0.592,0.64,1.18,1.285,1.771,1.926c-1.146-0.567-2.293-1.118-3.439-1.616c-2.094-0.914-3.877-2.538-5.969-3.95
			c-0.422,2.183-0.744,3.803-1.15,4.917c-0.074-0.078-0.135-0.159-0.172-0.249c-0.285-0.718-0.939-1.216-1.75-0.991
			c-0.658,0.179-1.221,0.958-1.018,1.656c-1.619-1.497-3.242-2.995-4.863-4.492c-1.346-1.24-3.357,0.763-2.01,2.012
			c0.264,0.245,0.525,0.485,0.791,0.73c-0.441-0.257-0.895-0.526-1.379-0.816c0.004,0.225-0.012,0.404-0.018,0.608
			c-7.67-2.375-14.98-5.553-21.975-9.563c-0.967-0.555-1.863,0.135-2.072,0.967c-1.57-0.445-2.832,1.799-1.229,2.501
			c2.629,1.146,5.256,2.297,7.887,3.443c1.527,0.828,3.035,1.681,4.549,2.534c-2.635-0.885-5.266-1.771-7.898-2.652
			c-0.135-0.045-0.252-0.037-0.379-0.045c-5.002-2.215-9.816-4.868-14.432-7.993c-1.521-1.032-2.941,1.432-1.436,2.456
			c1.762,1.195,3.57,2.301,5.391,3.362c-5.188-1.742-10.377-3.484-15.562-5.23c-1.742-0.583-2.484,2.163-0.754,2.742
			c5.973,2.007,11.941,4.015,17.914,6.022c-9.146-1.946-18.295-3.88-27.479-5.634c-1.039-0.2-2.076-0.355-3.113-0.502
			c-0.203-0.42-0.592-0.743-1.203-0.738c-2.361,0.016-4.721,0.037-7.086,0.053c-1.285-0.024-2.566-0.012-3.84,0.029
			c-8.838,0.065-17.67,0.13-26.504,0.196c-1.832,0.012-1.832,2.856,0,2.844c2.42-0.017,4.834-0.037,7.254-0.053
			c-0.4,0.106-0.799,0.225-1.195,0.334h-12.215c-1.355,0-1.697,1.539-1.053,2.35c-0.258-0.118-0.551-0.179-0.898-0.102
			c-0.873,0.2-1.75,0.4-2.623,0.6c-2.457,0.375-4.876,0.926-7.255,1.661c-6.642,1.521-13.284,3.043-19.931,4.565
			c-1.787,0.408-1.028,3.15,0.755,2.742l5.998-1.375c-4.354,2.02-8.707,4.039-13.06,6.055c-1.661,0.771-0.216,3.219,1.436,2.456
			c2.391-1.109,4.778-2.215,7.168-3.325c-4.349,3.411-8.033,7.699-10.82,12.701c-0.894,1.604,1.562,3.036,2.456,1.436
			c1-1.795,2.142-3.464,3.37-5.047c0.392,0.682,1.326,1.077,2.118,0.522c-4.488,4.745-8.976,9.49-13.464,14.235
			c-1.261,1.33,0.747,3.346,2.012,2.012c3.211-3.395,6.426-6.793,9.637-10.188c-2.656,4.88-5.019,10-7.719,14.851
			c-1.354,2.428-2.901,4.75-4.382,7.152c2.88,0.539,5.667,1.065,10.114,1.897c-3.986,5.177-7.038,9.146-10.649,13.843
			c2.122,1.114,4.676,2.456,8.074,4.243c-0.2,0.196-0.722,0.714-1.016,1.041c-0.494,0.559-1.224,1.391-2.175,2.477
			c-1.758,2.02-4.255,4.875-7.601,8.343c-3.346,3.456-7.527,7.523-12.632,11.701c-5.1,4.166-11.138,8.467-18.123,11.963
			c-6.969,3.46-14.937,6.067-23.338,6.141c-4.198,0.065-8.47-0.592-12.729-1.881c-4.247-1.343-8.445-3.423-12.48-6.116
			c-8.095-5.39-15.353-13.297-21.648-22.228c-3.158-4.472-6.124-9.196-8.846-14.133c-1.416-2.432-2.664-4.981-3.994-7.482
			c-1.228-2.566-2.542-5.088-3.697-7.703l-1.779-3.896l-1.685-3.945c-1.154-2.689-2.309-5.374-3.464-8.05
			c-1.159-2.665-2.313-5.325-3.464-7.977c-1.273-2.66-2.538-5.312-3.803-7.952c-0.636-1.318-1.269-2.628-1.901-3.941
			c-0.682-1.281-1.359-2.558-2.04-3.835c-1.375-2.538-2.656-5.104-4.088-7.577c-1.46-2.456-2.909-4.9-4.349-7.328
			c-1.432-2.427-3.089-4.712-4.598-7.042c-6.275-9.184-13.191-17.584-20.931-24.382c-7.715-6.777-16.287-11.971-25.014-14.419
			c-2.203-0.522-4.321-1.15-6.483-1.354c-1.073-0.123-2.117-0.351-3.17-0.379c-1.053-0.041-2.089-0.078-3.113-0.114
			c-1.024-0.082-2.032,0.053-3.027,0.094c-0.991,0.086-1.979,0.065-2.934,0.232c-1.913,0.298-3.77,0.522-5.52,1.016
			c-7.066,1.668-12.709,4.586-17.038,7.324c-4.329,2.721-7.409,5.333-9.421,7.181C0.951,203.995,0,205.104,0,205.104
			s1.012-1.053,3.117-2.787c2.109-1.722,5.316-4.141,9.743-6.602c4.41-2.452,10.102-4.974,16.973-6.185
			c1.701-0.375,3.497-0.486,5.324-0.669c0.914-0.114,1.853-0.032,2.795-0.061c0.942,0.016,1.901-0.061,2.864,0.073
			c0.963,0.09,1.938,0.184,2.921,0.278c0.987,0.082,1.958,0.359,2.958,0.526c2.003,0.298,3.961,1.012,5.981,1.611
			c8.005,2.75,15.732,8.05,22.652,14.868c6.94,6.838,13.093,15.227,18.613,24.398c1.33,2.333,2.787,4.598,4.04,7.03
			c1.256,2.419,2.521,4.859,3.794,7.311c1.249,2.464,2.35,5.035,3.542,7.564c0.588,1.269,1.171,2.542,1.759,3.819
			c0.534,1.293,1.073,2.591,1.607,3.893c1.065,2.599,2.138,5.21,3.211,7.825c0.996,2.709,1.999,5.422,2.999,8.144
			c0.987,2.713,1.979,5.435,2.97,8.156l1.509,4.182l1.616,4.154c1.041,2.782,2.265,5.508,3.399,8.262
			c1.244,2.713,2.407,5.463,3.757,8.132c2.583,5.39,5.471,10.652,8.646,15.74c6.34,10.146,13.974,19.719,23.688,27.074
			c4.843,3.66,10.18,6.736,15.851,8.898c5.683,2.114,11.636,3.379,17.454,3.632c5.814,0.269,11.469-0.286,16.691-1.453
			c5.234-1.154,10.102-2.782,14.545-4.7c8.898-3.835,16.259-8.511,22.42-12.966c6.157-4.479,11.122-8.788,15.083-12.436
			c2.897-2.677,5.255-5.007,7.075-6.847c1.91-0.669,4.696-0.498,6.459,0.445c0.351,0.188,0.693,0.383,1.04,0.57
			c-0.363-0.032-0.73-0.04-1.098-0.016c-1.819,0.118-1.832,2.958,0,2.844c1.563-0.098,2.954,0.489,3.917,1.619
			c-2.721-0.518-5.438-1.089-8.135-1.771c-1.779-0.448-2.534,2.293-0.755,2.742c5.961,1.505,11.979,2.587,18.054,3.312
			c0.143,0.033,0.282,0.082,0.42,0.11c-0.485,0.779-0.114,2.183,1.134,2.33c2.485,0.289,4.965,0.583,7.449,0.877
			c0.094,0.053,0.184,0.105,0.277,0.159h-10.056c-1.832,0-1.832,2.844,0,2.844h13.162c-3.664,2.448-7.119,5.422-11.122,7.038
			c-11.012,4.442-12.269,6.597-7.295,17.323c2.97,6.41,5.822,13.027,9.857,18.756c8.222,11.669,19.956,16.716,34.251,15.736
			c5.129-0.351,10.283-0.388,15.402-0.836c1.709-0.151,3.35-1.143,5.66-1.979c-5.035-6.594-10.633-9.984-18.271-10.355
			c-9.938-0.485-19.07-2.562-24.814-12.261c-6.014-10.15-4.688-14.459,7.182-18.314c0.334,1.514,0.656,2.986,1,4.557
			c2.088,0.262,4.141,0.352,6.172,0.348l-5.973,2.309c-1.693,0.653-0.955,3.403,0.754,2.742l11.592-4.484
			c-0.225,0.914,0.494,2.098,1.709,1.815c5.766-1.342,11.291-3.211,16.594-5.561c0.018,0.926,1.016,1.893,2.139,1.347
			c7.332-3.595,14.664-7.189,21.998-10.788c-3.072,1.836-6.148,3.668-9.221,5.504c-1.57,0.938-0.143,3.395,1.438,2.456
			c3.803-2.269,7.605-4.537,11.406-6.805c0.377,6.544,0.576,13.027,1.34,19.437c1.121,9.4,10.832,10.054,16.625,12.905
			c5.158,2.538,13.316-1.021,20.555-1.938c-0.225-1.02-0.529-2.432-1.016-4.639c2.633,1.094,4.635,1.922,7.65,3.175
			c-3.627-7.071-7.932-10.646-15.059-9.829c-1.633,0.188-3.502,0.433-4.93-0.159c-3.342-1.379-8.645-2.644-9.314-5.03
			c-2.432-8.703-0.037-12.049,6.676-15.215c1.043-0.493,2.072-0.946,3.096-1.358c-1.938,1.134-3.781,2.473-5.475,4.056
			c-1.344,1.252,0.672,3.26,2.012,2.011c3.635-3.395,7.922-5.577,12.57-6.572c-2.217,1.032-4.383,2.195-6.488,3.513
			c-1.545,0.971-0.121,3.432,1.438,2.456c1.848-1.158,3.74-2.187,5.674-3.113c0.311,0.327,0.756,0.531,1.318,0.4
			c1.555-0.355,3.109-0.71,4.668-1.065l-1.506,0.522c-1.723,0.596-0.979,3.346,0.754,2.742l0,0c-0.363,1.016,0.779,2.395,2.068,1.75
			c2.393-1.195,4.783-2.391,7.178-3.586c-0.723,0.428-1.445,0.856-2.166,1.285c-1.576,0.934-0.146,3.391,1.436,2.456
			c3.121-1.849,6.238-3.692,9.359-5.541c5.484,0.502,11.531,3.864,16.609,9.771c3.754,4.366,8.092,6.769,13.562,8.76
			c5.773,2.102,10.387,7.201,15.803,10.511c8.66,5.287,17.184,11.098,26.49,14.92c6.439,2.648,14.088,2.428,21.225,3.224
			c1.154,0.13,3.23-0.845,3.586-1.791c3.758-10.05,9.543-5.047,15.068-2.216c0.758,0.388,1.5,0.8,2.57,0.616
			c-5.668-5.826-11.939-12.24-20.527-10.678c-18.471,3.358-31.812-11.619-34.99-30.114c-0.098-0.575-0.232-1.15-0.379-1.734
			c0.521,0.857,1.832,1.204,2.375,0.058c0.27-0.575,0.596-1.114,0.945-1.632c0.568,0.722,1.771,0.95,2.326-0.09
			c0.188-0.355,0.412-0.682,0.652-0.991c0.176,1.061,1.873,1.692,2.682,0.51c0.322-0.47,0.697-0.877,1.105-1.24
			c0.488,0.562,1.371,0.82,2.076,0.163c1.045-0.971,2.439-1.33,3.822-0.996c0.021,0.005,0.037,0,0.062,0.005
			c0.914,0.502,1.828,1.117,2.742,1.913c1.725,1.502,4.504,2.113,6.898,2.473c7.625,1.143,15.391,1.518,22.934,3.027
			c13.754,2.758,27.352,6.304,41.105,9.054c2.484,0.497,5.418-1.244,8.145-1.95C585.732,358.716,584.652,355.774,582.584,354.645z
			 M260.867,307.721l-0.755-0.837c0.347,0.184,0.686,0.359,1.048,0.551C261.059,307.532,260.965,307.626,260.867,307.721z
			 M489.322,349.136c-0.086,0.18-0.117,0.359-0.131,0.531c-0.203-0.764-0.424-1.559-0.637-2.424
			c0.857-0.335,1.707-0.661,2.555-0.959C490.416,347.149,489.812,348.096,489.322,349.136z"/>
	</g>
</g>
<g>
</g>
<g>
</g>
<g>
</g>
<g>
</g>
<g>
</g>
<g>
</g>
<g>
</g>
<g>
</g>
<g>
</g>
<g>
</g>
<g>
</g>
<g>
</g>
<g>
</g>
<g>
</g>
<g>
</g>
</svg>
